HIERARCHY
ROOT Hips
{
	OFFSET 0.000000 0.000000 0.000000
	CHANNELS 6 Xposition Yposition Zposition Xrotation Yrotation Zrotation
	JOINT LeftUpLeg_virtual
	{
		OFFSET 0.000000 0.000000 0.000000
		CHANNELS 3 Xrotation Yrotation Zrotation
		JOINT LeftUpLeg
		{
			OFFSET 15.427100 -6.655098 0.678600
			CHANNELS 3 Xrotation Yrotation Zrotation
			JOINT LeftLeg
			{
				OFFSET 4.081073 -39.591068 13.024000
				CHANNELS 3 Xrotation Yrotation Zrotation
				JOINT LeftFoot
				{
					OFFSET -4.081074 -37.707932 -15.979700
					CHANNELS 3 Xrotation Yrotation Zrotation
					JOINT LeftToeBase
					{
						OFFSET 5.346399 -15.068900 20.645000
						CHANNELS 3 Xrotation Yrotation Zrotation
						JOINT LeftToe_End
						{
							OFFSET 2.754700 0.931300 11.300900
							CHANNELS 3 Xrotation Yrotation Zrotation
							End Site
							{
								OFFSET 0 0 0
							}
						}
					}
				}
			}
		}
	}
	JOINT RightUpLeg_virtual
	{
		OFFSET 0.000000 0.000000 0.000000
		CHANNELS 3 Xrotation Yrotation Zrotation
		JOINT RightUpLeg
		{
			OFFSET -15.569500 -6.655098 0.678600
			CHANNELS 3 Xrotation Yrotation Zrotation
			JOINT RightLeg
			{
				OFFSET -4.081825 -39.591045 13.023800
				CHANNELS 3 Xrotation Yrotation Zrotation
				JOINT RightFoot
				{
					OFFSET 4.081824 -37.707954 -15.979600
					CHANNELS 3 Xrotation Yrotation Zrotation
					JOINT RightToeBase
					{
						OFFSET -5.346400 -15.068900 20.645000
						CHANNELS 3 Xrotation Yrotation Zrotation
						JOINT RightToe_End
						{
							OFFSET -2.754700 0.931300 11.300900
							CHANNELS 3 Xrotation Yrotation Zrotation
							End Site
							{
								OFFSET 0 0 0
							}
						}
					}
				}
			}
		}
	}
	JOINT Spine_virtual
	{
		OFFSET 0.000000 0.000000 0.000000
		CHANNELS 3 Xrotation Yrotation Zrotation
		JOINT Spine
		{
			OFFSET -0.279200 12.230698 -2.892100
			CHANNELS 3 Xrotation Yrotation Zrotation
			JOINT Spine1
			{
				OFFSET -0.232667 10.192268 -1.242267
				CHANNELS 3 Xrotation Yrotation Zrotation
				JOINT Spine1_split
				{
					OFFSET -0.232667 10.192268 -1.242267
					CHANNELS 3 Xrotation Yrotation Zrotation
					JOINT Spine2
					{
						OFFSET -0.232667 10.192268 -1.242267
						CHANNELS 3 Xrotation Yrotation Zrotation
						JOINT Neck_virtual
						{
							OFFSET 0.000000 0.000000 0.000000
							CHANNELS 3 Xrotation Yrotation Zrotation
							JOINT Neck
							{
								OFFSET -0.418800 17.814194 8.416900
								CHANNELS 3 Xrotation Yrotation Zrotation
								JOINT Head
								{
									OFFSET 0.000000 7.031097 3.806800
									CHANNELS 3 Xrotation Yrotation Zrotation
									JOINT HeadTop_End
									{
										OFFSET 0.000000 24.646606 12.978600
										CHANNELS 3 Xrotation Yrotation Zrotation
										End Site
										{
											OFFSET 0 0 0
										}
									}
								}
							}
						}
						JOINT LeftShoulder_virtual
						{
							OFFSET 0.000000 0.000000 0.000000
							CHANNELS 3 Xrotation Yrotation Zrotation
							JOINT LeftShoulder
							{
								OFFSET 8.476499 7.247704 -3.868750
								CHANNELS 3 Xrotation Yrotation Zrotation
								JOINT LeftShoulder_split
								{
									OFFSET 8.476499 7.247704 -3.868750
									CHANNELS 3 Xrotation Yrotation Zrotation
									JOINT LeftArm
									{
										OFFSET 9.308998 -2.777710 0.208600
										CHANNELS 3 Xrotation Yrotation Zrotation
										JOINT LeftForeArm
										{
											OFFSET 29.972298 0.000000 0.000000
											CHANNELS 3 Xrotation Yrotation Zrotation
											JOINT LeftHand
											{
												OFFSET 26.026505 0.000000 0.000000
												CHANNELS 3 Xrotation Yrotation Zrotation
												End Site
												{
													OFFSET 0 0 0
												}
											}
										}
									}
								}
							}
						}
						JOINT RightShoulder_virtual
						{
							OFFSET 0.000000 0.000000 0.000000
							CHANNELS 3 Xrotation Yrotation Zrotation
							JOINT RightShoulder
							{
								OFFSET -7.570500 7.247704 -3.868750
								CHANNELS 3 Xrotation Yrotation Zrotation
								JOINT RightShoulder_split
								{
									OFFSET -7.570500 7.247704 -3.868750
									CHANNELS 3 Xrotation Yrotation Zrotation
									JOINT RightArm
									{
										OFFSET -9.308998 -2.777710 0.208500
										CHANNELS 3 Xrotation Yrotation Zrotation
										JOINT RightForeArm
										{
											OFFSET -29.972300 0.000000 0.000000
											CHANNELS 3 Xrotation Yrotation Zrotation
											JOINT RightHand
											{
												OFFSET -26.026505 0.000000 0.000000
												CHANNELS 3 Xrotation Yrotation Zrotation
												End Site
												{
													OFFSET 0 0 0
												}
											}
										}
									}
								}
							}
						}
					}
				}
			}
		}
	}
}
MOTION
Frames: 7
Frame Time: 0.03333333
-1.742711 38.777794 57.149773 0.000000 0.000000 0.000000 18.956712 3.404993 -13.774855 0.080223 -16.760203 21.206552 96.746214 -2.174607 -16.855684 9.758042 25.839687 -47.517298 -51.949172 7.670063 -29.775930 0.000000 0.000000 0.000000 22.591290 3.144764 -14.269547 -6.733132 11.110841 -17.871289 55.357102 27.217315 -6.308640 26.106822 -9.375246 50.029951 -27.542536 12.767400 -23.407898 0.000000 0.000000 0.000000 20.220200 2.392912 -14.810384 9.007875 8.740266 4.489619 -3.047601 0.058615 4.681385 -0.028343 0.072147 0.053281 0.000000 0.000000 0.000000 2.176636 2.476234 6.447979 -61.589448 6.417158 18.986649 -29.151913 4.753498 -3.362128 0.000000 0.000000 0.000000 -0.594298 1.700025 5.265293 -18.260109 -11.734350 -19.602901 -0.652461 5.550394 -5.799991 -5.833116 19.606879 -39.869033 90.530073 -25.863671 55.417816 0.000000 0.000000 0.000000 1.913470 1.812360 5.738094 -17.760567 -7.818554 8.364724 -12.181622 -6.928403 -0.171005 -19.560180 11.876762 56.823865 42.200406 0.741399 -0.757879 0.000000 0.000000 0.000000 
-1.378506 39.308586 58.020569 0.000000 0.000000 0.000000 21.036284 2.921868 -13.490815 0.498822 -15.891301 19.939248 93.935803 -2.266445 -17.614349 10.589582 25.911755 -45.418104 -55.508818 7.288010 -27.041231 0.000000 0.000000 0.000000 24.610358 2.906079 -13.911455 -7.451936 10.973392 -18.635039 53.918227 28.293768 -6.898259 27.195310 -9.440478 50.628787 -24.323393 11.297681 -22.648841 0.000000 0.000000 0.000000 22.255118 1.930234 -14.924332 8.312910 8.846960 4.518459 -3.050752 0.116072 5.003635 -0.015556 -0.000290 0.122618 0.000000 0.000000 0.000000 2.591884 2.587693 6.714948 -65.412783 6.180220 17.047356 -26.489721 3.128575 -2.422790 0.000000 0.000000 0.000000 -0.635505 1.855638 5.505232 -18.765834 -13.174859 -18.595528 -0.844552 5.740601 -5.534769 -5.598474 23.869899 -37.079055 92.383301 -24.821418 53.145565 0.000000 0.000000 0.000000 1.888633 1.825599 5.793489 -17.280338 -8.430581 6.678713 -11.191645 -5.656862 0.898174 -21.548716 8.546505 60.206465 43.208313 6.066801 -5.926749 0.000000 0.000000 0.000000 
-1.029801 39.460434 59.025803 0.000000 0.000000 0.000000 23.226296 2.202498 -12.749421 1.308550 -16.082838 18.301739 91.670940 -2.052476 -18.587889 9.637710 28.169326 -42.267386 -56.519167 6.312753 -24.743206 0.000000 0.000000 0.000000 26.762150 2.821665 -13.392423 -8.716653 10.489258 -19.886101 53.949516 29.521526 -7.387579 29.290389 -8.375243 51.470164 -20.685226 9.718759 -21.734198 0.000000 0.000000 0.000000 24.277455 1.690759 -14.771017 7.679333 8.301767 4.307403 -3.068295 0.150375 5.024708 0.008773 -0.035306 0.191274 0.000000 0.000000 0.000000 2.779189 2.638178 6.701588 -69.024225 6.222648 16.079548 -23.549627 1.396828 -0.241239 0.000000 0.000000 0.000000 -0.737920 1.951391 5.419454 -18.998111 -14.125510 -17.143375 -1.264653 4.919240 -5.034559 -3.254050 26.559450 -35.181850 92.857972 -25.628955 51.429596 0.000000 0.000000 0.000000 1.736329 1.746490 5.540229 -16.927832 -8.377391 5.416748 -10.293706 -4.087598 2.000738 -21.928054 6.082093 63.530096 45.950484 13.763341 -13.337437 0.000000 0.000000 0.000000 
-0.738907 39.248367 59.918877 0.000000 0.000000 0.000000 25.327139 1.991028 -11.933674 1.835471 -17.788625 16.261430 89.643166 -1.437441 -19.014162 7.871248 31.667598 -40.244936 -55.549888 5.498908 -23.301925 0.000000 0.000000 0.000000 29.080934 2.896651 -12.855935 -9.801966 9.444759 -21.151004 54.488377 30.738242 -7.694535 31.649375 -6.853046 52.370253 -18.060082 8.381659 -20.707848 0.000000 0.000000 0.000000 26.435634 2.018274 -14.582281 7.248356 7.167217 3.853754 -3.100619 0.147398 4.836184 0.066719 -0.019374 0.296151 0.000000 0.000000 0.000000 2.697379 2.614508 6.491892 -72.171740 6.395464 16.076250 -20.731373 -0.357664 2.781320 0.000000 0.000000 0.000000 -0.953075 1.997606 5.134984 -18.975801 -14.416296 -15.366321 -2.294152 3.592738 -4.340186 0.038052 27.831052 -34.078218 91.614475 -27.686773 49.888890 0.000000 0.000000 0.000000 1.487975 1.595379 5.106348 -16.643407 -7.780419 4.845334 -9.918969 -3.090232 2.693421 -21.428253 4.465764 66.071685 50.441394 21.699332 -22.289421 0.000000 0.000000 0.000000 
-0.374458 38.914673 60.849052 0.000000 0.000000 0.000000 27.575101 2.294293 -11.369358 2.188269 -20.560341 14.208376 86.986188 -0.356601 -18.748164 7.501937 34.678701 -41.038536 -54.959558 5.115976 -22.340454 0.000000 0.000000 0.000000 31.489610 2.926591 -12.486359 -10.026234 7.483816 -21.994505 54.319460 31.592651 -7.722147 33.588575 -5.912104 53.096108 -16.529000 7.379364 -19.657810 0.000000 0.000000 0.000000 28.921685 2.872584 -14.549565 7.043813 5.598213 3.267618 -3.189175 0.069825 4.517351 0.127080 0.093697 0.379613 0.000000 0.000000 0.000000 2.373595 2.502118 6.153372 -74.629782 6.487992 16.952326 -18.256916 -1.759147 6.002717 0.000000 0.000000 0.000000 -1.306738 1.989964 4.772640 -18.754397 -13.900519 -13.345426 -3.900205 1.527656 -3.669581 3.505083 28.183830 -33.575519 88.963883 -30.539050 48.674407 0.000000 0.000000 0.000000 1.153735 1.386202 4.580238 -16.394365 -6.720212 5.056383 -10.357313 -3.025648 2.946881 -20.446721 3.572086 67.374598 56.028493 28.147787 -31.588488 0.000000 0.000000 0.000000 
-0.007884 38.553185 61.875923 0.000000 0.000000 0.000000 30.136144 3.108753 -11.286968 2.188555 -23.989405 12.481579 83.223922 0.696133 -17.595233 9.957273 35.791045 -45.106808 -56.923753 5.236915 -21.494680 0.000000 0.000000 0.000000 33.868357 2.869849 -12.375895 -9.234406 4.759792 -22.109631 52.919367 31.975380 -7.505484 34.548282 -6.251858 53.711638 -15.738950 6.691340 -18.586108 0.000000 0.000000 0.000000 32.064566 4.117575 -14.836424 6.967552 3.780414 2.701476 -3.342885 -0.043922 4.095503 0.137461 0.215705 0.424149 0.000000 0.000000 0.000000 1.922157 2.357203 5.726124 -76.335178 6.514917 18.475066 -16.451334 -2.682459 8.570975 0.000000 0.000000 0.000000 -1.800185 2.005307 4.377443 -18.414513 -12.538548 -11.162355 -6.193089 -0.502407 -3.226606 6.793403 27.941245 -33.820908 85.851598 -33.642732 48.269678 0.000000 0.000000 0.000000 0.778932 1.186014 3.993712 -16.129075 -5.335179 5.828461 -11.386438 -3.519497 2.878705 -18.642342 3.420397 67.282657 61.782312 32.754848 -39.934952 0.000000 0.000000 0.000000 
0.361771 38.181793 63.017223 0.000000 0.000000 0.000000 32.923469 4.163364 -11.590132 2.519321 -27.035969 10.945902 78.564941 1.953994 -16.000989 12.686333 35.977608 -48.786139 -61.350200 5.569348 -20.632051 0.000000 0.000000 0.000000 36.567757 3.230123 -12.612902 -7.361409 1.711680 -21.458081 50.327481 32.078024 -7.320022 34.143412 -8.019932 54.375174 -16.039974 6.419402 -17.501419 0.000000 0.000000 0.000000 35.907032 5.569019 -15.451210 6.867365 1.936391 2.305394 -3.609063 -0.137341 3.588344 0.130486 0.291485 0.450685 0.000000 0.000000 0.000000 1.412761 2.244640 5.242977 -77.295892 6.452370 20.296257 -15.460340 -3.279751 9.866787 0.000000 0.000000 0.000000 -2.379488 2.091521 3.958487 -17.974983 -10.311491 -8.834063 -8.341503 -2.536155 -3.367328 9.989611 27.088100 -34.856177 83.448007 -36.624758 49.283787 0.000000 0.000000 0.000000 0.358570 1.040223 3.364180 -15.785795 -3.776774 6.886916 -12.430280 -4.148105 2.630064 -15.738687 3.823356 65.850059 67.009080 35.976177 -46.334303 0.000000 0.000000 0.000000 
